# xmcd
#
# Track frame offsets:
#	150
#	18139
#	35162
#	49382
#	68679
#	86284
#	107767
#	127532
#	147661
#	172052
#	186776
#	202377
#
# Disc length: 3083 seconds
#
# Revision: 1
# Processed by: cddbd v1.5.2PL0 Copyright (c) Steve Scherf et al.
# Submitted via: audiograbber 1.83.01
#
DISCID=ab0c090c
DTITLE=Distance - Grounded
DYEAR=2008
DGENRE=Country
TTITLE0=Country Life
TTITLE1=All The Dealing
TTITLE2=Commission Fast
TTITLE3=Breaking Her Soul
TTITLE4=Drivers Wife
TTITLE5=Walk Away
TTITLE6=Back Home
TTITLE7=Sholder So Cold
TTITLE8=Love The Way
TTITLE9=The Guy Is Over
TTITLE10=Little Cowgirl
TTITLE11=You Make It
EXTD=
EXTT0=
EXTT1=
EXTT2=
EXTT3=
EXTT4=
EXTT5=
EXTT6=
EXTT7=
EXTT8=
EXTT9=
EXTT10=
EXTT11=
PLAYORDER=
